<svg width="364" height="300" viewBox="0 0 364 300" fill="none" xmlns="http://www.w3.org/2000/svg">
<mask id="mask0_4006_833" style="mask-type:alpha" maskUnits="userSpaceOnUse" x="-36" y="0" width="1175" height="300">
<rect width="1175" height="300" transform="matrix(-1 0 0 1 1139 0)" fill="#C4C4C4"/>
</mask>
<g mask="url(#mask0_4006_833)">
<g opacity="0.1">
<path d="M-81.9829 58.3734C-81.9829 58.3734 -49.2176 83.5939 196.403 89.6237C382.285 94.1854 732.152 11.0785 943.818 16.4267C1161.67 21.8798 1138.27 77.0397 1138.27 40.0742V95.339C1138.27 95.339 1065.52 43.3775 939.058 43.8494C753.097 44.6359 370.623 157.787 187.835 161.3C9.56956 164.708 -81.9829 95.339 -81.9829 95.339V58.3734Z" fill="#23D088"/>
</g>
<g opacity="0.2">
<path d="M-41.4861 57.4557C379.52 261.653 668.166 -5.85722 892.215 0.109033C1122.9 6.28463 1139 110.655 1139 69.0479V131.275C1139 131.275 1063.13 105.535 933.097 97.652C461.276 69.0479 433.769 324.895 214.479 297.562C-4.81038 270.228 -157.532 1.17081 -41.4861 57.4557Z" fill="#BBF0DA"/>
</g>
</g>
</svg>
