<svg width="40" height="38" viewBox="0 0 40 38" fill="none" xmlns="http://www.w3.org/2000/svg">
<g clip-path="url(#clip0_2_280)">
<path fill-rule="evenodd" clip-rule="evenodd" d="M8.93899 8.32812C9.08395 8.69886 9.67991 12.3898 9.50274 12.7283C9.18061 13.3892 9.39 13.9211 9.82486 14.4207C10.0826 14.6947 10.3725 14.9526 10.6463 15.2427C10.8074 15.42 11.0007 15.5973 11.1456 15.7907C11.645 16.4354 11.5161 16.9028 10.7591 17.2091C10.6786 17.2413 10.598 17.2736 10.5175 17.3058C10.3564 17.3864 10.292 17.5476 10.3564 17.7087C10.4047 17.8216 10.4692 17.9183 10.5175 18.0311C10.6624 18.3535 10.598 18.6275 10.292 18.8209C10.147 18.9015 9.96986 18.9659 9.82486 19.0304C9.67991 19.0949 9.55107 19.1433 9.42222 19.2561C9.55107 19.2883 9.67991 19.3044 9.80879 19.3367C10.002 19.385 10.2114 19.4011 10.3886 19.4817C10.6947 19.5945 10.7752 19.8524 10.6463 20.1264C10.6302 20.1909 10.598 20.2392 10.5658 20.2876C10.2275 20.7067 10.2275 21.1741 10.3886 21.6576C10.5336 22.1089 10.4047 22.4152 9.96986 22.6247C9.40611 22.8826 8.79404 22.9148 8.19808 22.9471C8.0209 22.9632 7.82762 22.9471 7.65044 22.9471C7.27998 22.9632 7.11892 23.2533 7.0223 23.5273C6.89342 23.9303 6.79679 24.3493 6.70013 24.7684C6.65184 24.9135 6.63573 25.0585 6.42633 25.0424C6.24916 25.0102 6.16861 24.8812 6.21694 24.6717C6.31356 24.2687 6.41022 23.8658 6.52296 23.4628C6.57129 23.2856 6.68402 23.1244 6.78068 22.9632C7.00619 22.5602 7.37664 22.4635 7.81151 22.4474C8.34303 22.4313 8.87459 22.3668 9.40611 22.3023C9.48663 22.2862 9.56718 22.254 9.64769 22.2379C9.95375 22.1089 9.98597 22.0445 9.88931 21.7221C9.72824 21.1419 9.72824 20.5616 10.1309 20.0458C10.147 20.0297 10.1631 19.9975 10.1793 19.9652C10.1793 19.9652 10.1793 19.9492 10.1793 19.9008C10.002 19.8685 9.82486 19.8685 9.6638 19.8041C9.40611 19.7235 9.14839 19.6268 8.93899 19.4978C8.71349 19.3528 8.71349 19.111 8.92288 18.9337C9.06787 18.8209 9.26112 18.7403 9.42222 18.6597C9.5994 18.5791 9.77657 18.5146 9.95375 18.4502C10.0826 18.4018 10.1309 18.3212 10.0504 18.1923C10.002 18.1117 9.96986 18.0311 9.93764 17.9666C9.72824 17.5798 9.88931 16.9996 10.3886 16.8223C10.4692 16.79 10.5658 16.7578 10.6463 16.7256C10.9846 16.5805 11.0329 16.4516 10.7913 16.1614C10.5175 15.8229 10.1953 15.5006 9.8732 15.1782C9.42222 14.743 9.00343 14.2918 8.87459 13.6471C8.84237 13.4536 8.85848 13.2441 8.89066 13.0507C8.92288 12.8734 9.00343 12.7122 9.05176 12.551C9.14839 12.2931 8.58464 8.7472 8.4558 8.48931L8.93899 8.32812Z" fill="white" stroke="white" stroke-width="0.0135276"/>
<path fill-rule="evenodd" clip-rule="evenodd" d="M18.4776 19.2831C18.4454 20.9432 17.8977 22.3938 16.7864 23.6188C16.7219 23.6833 16.6736 23.7477 16.5931 23.8122C16.4481 23.9411 16.2871 23.9411 16.1421 23.8122C15.9971 23.6671 15.9971 23.4898 16.126 23.3448C16.2548 23.1836 16.4159 23.0385 16.5447 22.8774C17.8816 21.1205 18.1715 19.1864 17.3984 17.1233C17.1246 16.4302 16.7219 15.8339 16.2226 15.2858C16.126 15.1891 16.0454 15.0118 16.0616 14.899C16.0938 14.625 16.4159 14.5766 16.6414 14.7862C17.2051 15.3503 17.6239 15.995 17.9461 16.7042C18.3004 17.5262 18.4776 18.3966 18.4776 19.2831Z" fill="white"/>
<path fill-rule="evenodd" clip-rule="evenodd" d="M18.4776 19.2831C18.4454 20.9432 17.8977 22.3938 16.7864 23.6188C16.7219 23.6833 16.6736 23.7477 16.5931 23.8122C16.4481 23.9411 16.2871 23.9411 16.1421 23.8122C15.9971 23.6671 15.9971 23.4898 16.126 23.3448C16.2548 23.1836 16.4159 23.0385 16.5447 22.8774C17.8816 21.1205 18.1715 19.1864 17.3984 17.1233C17.1246 16.4302 16.7219 15.8339 16.2226 15.2858C16.126 15.1891 16.0454 15.0118 16.0616 14.899C16.0938 14.625 16.4159 14.5766 16.6414 14.7862C17.2051 15.3503 17.6239 15.995 17.9461 16.7042C18.3004 17.5262 18.4776 18.3966 18.4776 19.2831Z" stroke="white" stroke-width="0.0135276"/>
<path fill-rule="evenodd" clip-rule="evenodd" d="M16.2907 19.7456C16.2746 20.5676 15.8397 21.712 14.9699 22.679C14.9377 22.7274 14.9055 22.7596 14.8571 22.808C14.6961 22.9692 14.5189 23.0175 14.3417 22.8402C14.1645 22.679 14.229 22.5018 14.3739 22.3406C14.8249 21.8893 15.1793 21.3574 15.3726 20.7288C15.9041 19.1009 15.6142 17.618 14.4706 16.2964C14.4223 16.248 14.3578 16.1997 14.3256 16.1352C14.2129 15.9901 14.1968 15.8289 14.3417 15.7C14.4706 15.5872 14.6478 15.5388 14.8088 15.6839C14.9538 15.8289 15.0987 15.9901 15.2276 16.1513C15.9202 17.07 16.2907 18.1177 16.2907 19.7456Z" fill="white"/>
<path fill-rule="evenodd" clip-rule="evenodd" d="M16.2907 19.7456C16.2746 20.5676 15.8397 21.712 14.9699 22.679C14.9377 22.7274 14.9055 22.7596 14.8571 22.808C14.6961 22.9692 14.5189 23.0175 14.3417 22.8402C14.1645 22.679 14.229 22.5018 14.3739 22.3406C14.8249 21.8893 15.1793 21.3574 15.3726 20.7288C15.9041 19.1009 15.6142 17.618 14.4706 16.2964C14.4223 16.248 14.3578 16.1997 14.3256 16.1352C14.2129 15.9901 14.1968 15.8289 14.3417 15.7C14.4706 15.5872 14.6478 15.5388 14.8088 15.6839C14.9538 15.8289 15.0987 15.9901 15.2276 16.1513C15.9202 17.07 16.2907 18.1177 16.2907 19.7456Z" stroke="white" stroke-width="0.0135276"/>
<path fill-rule="evenodd" clip-rule="evenodd" d="M13.4235 19.2143C13.4074 18.4407 13.1175 17.7476 12.5699 17.1512C12.3444 16.9095 12.3766 16.6516 12.6665 16.571C12.7793 16.5387 12.9564 16.6032 13.037 16.6838C13.794 17.4736 14.1322 18.4245 14.0678 19.5044C14.0195 20.3909 13.6812 21.1646 13.0853 21.8254C12.9242 21.9866 12.7631 22.0994 12.5376 21.9221C12.3766 21.7932 12.3927 21.5837 12.6021 21.358C13.1336 20.7616 13.4074 20.0686 13.4235 19.2143Z" fill="white"/>
<path fill-rule="evenodd" clip-rule="evenodd" d="M13.4235 19.2143C13.4074 18.4407 13.1175 17.7476 12.5699 17.1512C12.3444 16.9095 12.3766 16.6516 12.6665 16.571C12.7793 16.5387 12.9564 16.6032 13.037 16.6838C13.794 17.4736 14.1322 18.4245 14.0678 19.5044C14.0195 20.3909 13.6812 21.1646 13.0853 21.8254C12.9242 21.9866 12.7631 22.0994 12.5376 21.9221C12.3766 21.7932 12.3927 21.5837 12.6021 21.358C13.1336 20.7616 13.4074 20.0686 13.4235 19.2143Z" stroke="white" stroke-width="0.0135276"/>
<path fill-rule="evenodd" clip-rule="evenodd" d="M14.0615 33.5121C16.1836 34.3207 18.5051 34.7663 20.939 34.7663C23.9509 34.7663 26.8019 34.0732 29.3145 32.8644C26.2381 35.1853 22.4208 36.5715 18.2813 36.5715C15.9259 36.5715 13.6748 36.1261 11.6074 35.3151L14.0615 33.5121ZM8.90697 30.5288C5.08484 27.39 2.67374 22.7813 2.67374 17.6491C2.67374 8.20401 10.8399 0.531889 20.939 0.531889C21.6799 0.531889 22.4208 0.580245 23.1456 0.660835C21.5993 0.225651 19.9564 0 18.2813 0C8.18231 0 0 8.18789 0 18.2938C0 24.7322 3.33166 30.3961 8.36705 33.6524L8.90697 30.5288Z" fill="white"/>
<path d="M10.3725 29.3906L7.84375 37.6752L14.5764 31.4215L10.3725 29.3906Z" fill="#23D088"/>
<path fill-rule="evenodd" clip-rule="evenodd" d="M5.7494 17.9469C5.7494 25.7318 12.0472 32.0339 19.8268 32.0339C24.9819 32.0339 29.4907 29.2552 31.9386 25.1088H33.7047C31.1111 30.1422 25.8689 33.5812 19.8268 33.5812C11.1935 33.5812 4.20312 26.5861 4.20312 17.9469C4.20312 9.30765 11.1935 2.3125 19.8268 2.3125C25.5719 2.3125 30.594 5.42183 33.3034 10.0547H31.4767C28.9481 6.3155 24.673 3.85981 19.8268 3.85981C12.0472 3.85981 5.7494 10.1619 5.7494 17.9469Z" fill="#23D088"/>
<path d="M25.5469 19.5781H26.1912V23.2853H25.5469V19.5781Z" fill="white"/>
<path d="M27.0078 20.4941H27.5393L27.5877 20.881H27.6038C27.8615 20.6392 28.1353 20.4297 28.5219 20.4297C29.1178 20.4297 29.3755 20.8326 29.3755 21.5418V23.2826H28.7313V21.6224C28.7313 21.1711 28.6024 20.9938 28.2964 20.9938C28.0386 20.9938 27.8937 21.1066 27.6521 21.3484V23.2826H27.0078V20.4941Z" fill="white"/>
<path d="M31.25 22.8267C31.4594 22.8267 31.6365 22.73 31.8298 22.5205V21.2149C31.6365 21.0537 31.4433 20.9892 31.2661 20.9892C30.8956 20.9892 30.6057 21.3116 30.6057 21.908C30.6057 22.5043 30.8473 22.8267 31.25 22.8267ZM31.1211 20.4412C31.4433 20.4412 31.6365 20.5702 31.8459 20.7475L31.8298 20.2962V19.2969H32.4741V23.2941H31.9426L31.8942 23.004H31.8781C31.6688 23.1974 31.3788 23.3586 31.0889 23.3586C30.3802 23.3586 29.9453 22.8267 29.9453 21.908C29.9453 21.0054 30.5091 20.4412 31.1211 20.4412Z" fill="white"/>
<path d="M33.2212 20.5062H33.8815V23.2946H33.2212V20.5062ZM33.1406 19.652C33.1406 19.4424 33.3178 19.2812 33.5433 19.2812C33.7849 19.2812 33.946 19.4424 33.946 19.652C33.946 19.8776 33.7849 20.0227 33.5433 20.0227C33.3178 20.0227 33.1406 19.8776 33.1406 19.652Z" fill="white"/>
<path d="M35.5465 22.8474C35.772 22.8474 35.9491 22.7346 36.1585 22.5411V21.9125C35.4015 22.0092 35.1599 22.2027 35.1599 22.4928C35.1599 22.7346 35.321 22.8474 35.5465 22.8474ZM36.1585 21.5096C36.1585 21.2033 36.0297 20.9616 35.6592 20.9616C35.3693 20.9616 35.1116 21.0905 34.87 21.2356L34.6284 20.8004C34.9344 20.607 35.3371 20.4297 35.772 20.4297C36.4645 20.4297 36.8187 20.8649 36.8187 21.6385V23.2826H36.2713L36.223 22.9763H36.2069C35.9652 23.1858 35.6753 23.347 35.3532 23.347C34.8539 23.347 34.5156 23.0247 34.5156 22.5411C34.5156 21.9448 35.0149 21.6224 36.1585 21.5096Z" fill="white"/>
<path d="M21.9106 16.8157H22.6354C23.022 16.8157 23.2314 16.6223 23.2314 16.2193C23.2314 15.8325 22.9737 15.6229 22.4744 15.6229H21.9106V16.8157ZM21.9106 14.6559H22.3294C22.6838 14.6559 22.9576 14.4463 22.9576 14.1078C22.9576 13.7855 22.7643 13.6243 22.3939 13.6243H21.9106V14.6559ZM23.618 15.0588C24.1334 15.2361 24.4555 15.7196 24.4555 16.2354C24.4555 17.2347 23.8113 17.8472 22.5549 17.8472H21.2825C20.8637 17.8472 20.7188 17.7183 20.7188 17.3476V13.1247C20.7188 12.8023 20.8637 12.625 21.2825 12.625H22.3616C23.5696 12.625 24.069 13.173 24.069 13.995C24.069 14.5269 23.8435 14.8815 23.618 15.0588Z" fill="#23D088"/>
<path d="M27.7138 16.7869C28.1487 16.7869 28.503 16.6418 28.7607 16.3678C29.0345 16.0777 29.1634 15.707 29.1634 15.2395C29.1634 14.7721 29.0345 14.4014 28.7607 14.1113C28.503 13.8212 28.1487 13.6761 27.7138 13.6761C27.2789 13.6761 26.9406 13.8212 26.6668 14.1113C26.4091 14.4014 26.2641 14.7721 26.2641 15.2395C26.2641 15.707 26.4091 16.0777 26.6668 16.3678C26.9406 16.6418 27.2789 16.7869 27.7138 16.7869ZM27.7138 17.9796C26.9406 17.9796 26.2964 17.7217 25.7809 17.2221C25.2655 16.7063 25.0078 16.0454 25.0078 15.2395C25.0078 14.4336 25.2655 13.7728 25.797 13.2732C26.3125 12.7735 26.9567 12.5156 27.7138 12.5156C28.4869 12.5156 29.1311 12.7735 29.6466 13.2893C30.162 13.7889 30.4358 14.4336 30.4358 15.2395C30.4358 16.0454 30.162 16.7063 29.6466 17.2221C29.1311 17.7217 28.4869 17.9796 27.7138 17.9796Z" fill="#23D088"/>
<path d="M32.3403 16.7512H33.6289C33.9993 16.7512 34.2087 16.9446 34.2087 17.2992C34.2087 17.6538 33.9993 17.8472 33.6289 17.8472H31.7283C31.2612 17.8472 31.1484 17.7666 31.1484 17.3476V13.3503C31.1484 12.8346 31.39 12.625 31.7444 12.625C32.0826 12.625 32.3403 12.8346 32.3403 13.3503V16.7512Z" fill="#23D088"/>
<path d="M36.9949 16.7869C37.4139 16.7869 37.7681 16.6418 38.0418 16.3678C38.2998 16.0777 38.4448 15.707 38.4448 15.2395C38.4448 14.7721 38.2998 14.4014 38.0418 14.1113C37.7681 13.8212 37.4139 13.6761 36.9949 13.6761C36.5601 13.6761 36.2058 13.8212 35.9481 14.1113C35.6904 14.4014 35.5454 14.7721 35.5454 15.2395C35.5454 15.707 35.6904 16.0777 35.9481 16.3678C36.2058 16.6418 36.5601 16.7869 36.9949 16.7869ZM36.9949 17.9796C36.2219 17.9796 35.5776 17.7217 35.0622 17.2221C34.5468 16.7063 34.2891 16.0454 34.2891 15.2395C34.2891 14.4336 34.5468 13.7728 35.0622 13.2732C35.5776 12.7735 36.238 12.5156 36.9949 12.5156C37.7519 12.5156 38.4125 12.7735 38.9277 13.2893C39.4433 13.7889 39.7009 14.4336 39.7009 15.2395C39.7009 16.0454 39.4433 16.7063 38.9277 17.2221C38.4125 17.7217 37.7681 17.9796 36.9949 17.9796Z" fill="#23D088"/>
</g>
<defs>
<clipPath id="clip0_2_280">
<rect width="40" height="38" fill="white"/>
</clipPath>
</defs>
</svg>
